<mxfile host="app.diagrams.net" agent="Mozilla/5.0 (Windows NT 10.0; Win64; x64) AppleWebKit/537.36 (KHTML, like Gecko) Chrome/135.0.0.0 Safari/537.36" version="26.2.13">
  <diagram name="Página-1" id="H9yRGpF1btW5j0pxlV9P">
    <mxGraphModel dx="1126" dy="1030" grid="1" gridSize="10" guides="1" tooltips="1" connect="1" arrows="1" fold="1" page="1" pageScale="1" pageWidth="827" pageHeight="1169" math="0" shadow="0">
      <root>
        <mxCell id="0" />
        <mxCell id="1" parent="0" />
        <mxCell id="rnjCSEew1vKHBSxMiClb-19" value="" style="rounded=0;whiteSpace=wrap;html=1;" vertex="1" parent="1">
          <mxGeometry x="120" y="100" width="720" height="440" as="geometry" />
        </mxCell>
        <mxCell id="rnjCSEew1vKHBSxMiClb-1" value="" style="rounded=1;whiteSpace=wrap;html=1;fillColor=#0050ef;strokeColor=#001DBC;fontColor=#ffffff;" vertex="1" parent="1">
          <mxGeometry x="190" y="140" width="460" height="60" as="geometry" />
        </mxCell>
        <mxCell id="rnjCSEew1vKHBSxMiClb-3" value="&lt;font style=&quot;color: light-dark(rgb(255, 0, 0), rgb(237, 237, 237));&quot;&gt;&lt;b&gt;Camada de serviço - tarefa&lt;/b&gt;&lt;/font&gt;" style="text;html=1;align=center;verticalAlign=middle;whiteSpace=wrap;rounded=0;" vertex="1" parent="1">
          <mxGeometry x="670" y="155" width="120" height="35" as="geometry" />
        </mxCell>
        <mxCell id="rnjCSEew1vKHBSxMiClb-4" value="" style="rounded=1;whiteSpace=wrap;html=1;fillColor=#0050ef;fontColor=#ffffff;strokeColor=#001DBC;" vertex="1" parent="1">
          <mxGeometry x="190" y="270" width="460" height="60" as="geometry" />
        </mxCell>
        <mxCell id="rnjCSEew1vKHBSxMiClb-5" value="&lt;font style=&quot;color: light-dark(rgb(255, 0, 0), rgb(237, 237, 237));&quot;&gt;&lt;b&gt;Camada de serviço - entidade&lt;/b&gt;&lt;/font&gt;" style="text;html=1;align=center;verticalAlign=middle;whiteSpace=wrap;rounded=0;" vertex="1" parent="1">
          <mxGeometry x="670" y="285" width="150" height="30" as="geometry" />
        </mxCell>
        <mxCell id="rnjCSEew1vKHBSxMiClb-6" value="" style="rounded=1;whiteSpace=wrap;html=1;fillColor=#0050ef;fontColor=#ffffff;strokeColor=#001DBC;" vertex="1" parent="1">
          <mxGeometry x="190" y="400" width="460" height="60" as="geometry" />
        </mxCell>
        <mxCell id="rnjCSEew1vKHBSxMiClb-7" value="&lt;font style=&quot;color: light-dark(rgb(250, 0, 0), rgb(237, 237, 237));&quot;&gt;&lt;b&gt;Camada de serviço - utilitário&lt;/b&gt;&lt;/font&gt;" style="text;html=1;align=center;verticalAlign=middle;whiteSpace=wrap;rounded=0;" vertex="1" parent="1">
          <mxGeometry x="670" y="415" width="120" height="30" as="geometry" />
        </mxCell>
        <mxCell id="rnjCSEew1vKHBSxMiClb-8" value="Gerar sinais vitais" style="ellipse;whiteSpace=wrap;html=1;fillColor=#1ba1e2;fontColor=#ffffff;strokeColor=#006EAF;" vertex="1" parent="1">
          <mxGeometry x="480" y="130" width="120" height="80" as="geometry" />
        </mxCell>
        <mxCell id="rnjCSEew1vKHBSxMiClb-11" value="Criar conta" style="ellipse;whiteSpace=wrap;html=1;fillColor=#1ba1e2;fontColor=#ffffff;strokeColor=#006EAF;" vertex="1" parent="1">
          <mxGeometry x="250" y="130" width="120" height="80" as="geometry" />
        </mxCell>
        <mxCell id="rnjCSEew1vKHBSxMiClb-12" value="Relatório" style="ellipse;whiteSpace=wrap;html=1;fillColor=#1ba1e2;fontColor=#ffffff;strokeColor=#006EAF;" vertex="1" parent="1">
          <mxGeometry x="370" y="260" width="120" height="80" as="geometry" />
        </mxCell>
        <mxCell id="rnjCSEew1vKHBSxMiClb-13" value="Enviar notificação" style="ellipse;whiteSpace=wrap;html=1;fillColor=#1ba1e2;fontColor=#ffffff;strokeColor=#006EAF;" vertex="1" parent="1">
          <mxGeometry x="370" y="390" width="120" height="80" as="geometry" />
        </mxCell>
        <mxCell id="rnjCSEew1vKHBSxMiClb-15" value="" style="endArrow=none;html=1;rounded=0;fontColor=#FF0000;labelBackgroundColor=#FF0000;fillColor=#e51400;strokeColor=#B20000;endSize=6;strokeWidth=2;entryX=0.5;entryY=1;entryDx=0;entryDy=0;exitX=0.5;exitY=0;exitDx=0;exitDy=0;" edge="1" parent="1" source="rnjCSEew1vKHBSxMiClb-12" target="rnjCSEew1vKHBSxMiClb-11">
          <mxGeometry width="50" height="50" relative="1" as="geometry">
            <mxPoint x="510" y="610" as="sourcePoint" />
            <mxPoint x="560" y="560" as="targetPoint" />
          </mxGeometry>
        </mxCell>
        <mxCell id="rnjCSEew1vKHBSxMiClb-16" value="" style="endArrow=none;html=1;rounded=0;fontColor=#FF0000;labelBackgroundColor=#FF0000;fillColor=#e51400;strokeColor=#B20000;endSize=6;strokeWidth=2;entryX=0.5;entryY=1;entryDx=0;entryDy=0;exitX=0.5;exitY=0;exitDx=0;exitDy=0;" edge="1" parent="1" source="rnjCSEew1vKHBSxMiClb-12" target="rnjCSEew1vKHBSxMiClb-8">
          <mxGeometry width="50" height="50" relative="1" as="geometry">
            <mxPoint x="440" y="270" as="sourcePoint" />
            <mxPoint x="320" y="220" as="targetPoint" />
          </mxGeometry>
        </mxCell>
        <mxCell id="rnjCSEew1vKHBSxMiClb-17" value="" style="endArrow=none;html=1;rounded=0;fontColor=#FF0000;labelBackgroundColor=#FF0000;fillColor=#e51400;strokeColor=#B20000;endSize=6;strokeWidth=2;entryX=0.5;entryY=1;entryDx=0;entryDy=0;exitX=0;exitY=0;exitDx=0;exitDy=0;" edge="1" parent="1" source="rnjCSEew1vKHBSxMiClb-13" target="rnjCSEew1vKHBSxMiClb-11">
          <mxGeometry width="50" height="50" relative="1" as="geometry">
            <mxPoint x="440" y="270" as="sourcePoint" />
            <mxPoint x="320" y="220" as="targetPoint" />
          </mxGeometry>
        </mxCell>
        <mxCell id="rnjCSEew1vKHBSxMiClb-18" value="" style="endArrow=none;html=1;rounded=0;fontColor=#FF0000;labelBackgroundColor=#FF0000;fillColor=#e51400;strokeColor=#B20000;endSize=6;strokeWidth=2;entryX=0.5;entryY=1;entryDx=0;entryDy=0;exitX=1;exitY=0;exitDx=0;exitDy=0;" edge="1" parent="1" source="rnjCSEew1vKHBSxMiClb-13" target="rnjCSEew1vKHBSxMiClb-8">
          <mxGeometry width="50" height="50" relative="1" as="geometry">
            <mxPoint x="398" y="412" as="sourcePoint" />
            <mxPoint x="320" y="220" as="targetPoint" />
          </mxGeometry>
        </mxCell>
      </root>
    </mxGraphModel>
  </diagram>
</mxfile>
